<svg xmlns="http://www.w3.org/2000/svg" width="50" height="50" viewBox="0 0 50 50">
  <g id="globe" transform="translate(-1282 -493)">
    <g id="call" transform="translate(1282 493)">
      <circle id="Ellipse_933" data-name="Ellipse 933" cx="25" cy="25" r="25" fill="#21d0b2"/>
      <g id="Globe-Whit" transform="translate(4 4)">
        <g id="Rectangle_12880" data-name="Rectangle 12880" transform="translate(0 0.027)" fill="#fff" stroke="#707070" stroke-width="1" opacity="0">
          <rect width="42.143" height="42.143" stroke="none"/>
          <rect x="0.5" y="0.5" width="41.143" height="41.143" fill="none"/>
        </g>
        <g id="Group_36241" data-name="Group 36241" transform="translate(0.028)">
          <path id="Path_40724" data-name="Path 40724" d="M29,17.033a4.01,4.01,0,0,0-3.211-1.291,4.025,4.025,0,0,0-2.566,2.3l-.1.1h0a15.026,15.026,0,0,1-2.005,2.806.883.883,0,0,1-.9.2h0a.673.673,0,0,1-.337-.126l-.182-.112A12.616,12.616,0,0,0,12.393,19.8c-4.375.519-3.618,8.109-3.324,10.621v.168a3.073,3.073,0,0,0,.785,1.4.715.715,0,0,0,.771.14,3.859,3.859,0,0,0,1.557-2.666,16.843,16.843,0,0,0,.28-2.09c.182-1.754.393-3.746,1.4-4.574a2.313,2.313,0,0,1,1.893-.365,13.135,13.135,0,0,1,2.8.828c2.482,1.207,3.969-.323,4.95-1.319l.168-.182a21.955,21.955,0,0,0,2.075-2.708.254.254,0,0,1,.21-.224.626.626,0,0,1,.463.154c2.973,2.806,4.347,6.131,3.66,9.007-.631,2.638-2.931,4.644-6.465,5.612l.084.351c5.3-1.4,8.652-3.985,9.452-7.464C33.947,23.375,32.446,20.008,29,17.033Z" transform="translate(3.552 6.349)" fill="#fff"/>
          <path id="Path_40725" data-name="Path 40725" d="M28.39,1.728,27.9,1.49A16.5,16.5,0,0,0,23.692.255,26.492,26.492,0,0,0,19.317,0a22.287,22.287,0,0,0-2.9.239,22.066,22.066,0,0,0-6.044,2.1c-.491.239-1.108.617-1.7.968A17.389,17.389,0,0,0,5.658,5.53a18.826,18.826,0,0,0-3.38,3.928c-.126.2-.266.393-.379.6l.309.182.379-.6C6.261,4.029,14.661,1.223,23.37,2.626c1.024.21,2.272.533,3.674.968,1.094.435,1.823,0,2.047-.491a1.094,1.094,0,0,0-.7-1.375Z" transform="translate(0.764 0.006)" fill="#fff"/>
          <path id="Path_40726" data-name="Path 40726" d="M35.914,16.506A25.434,25.434,0,0,0,22.521,9.771,23.955,23.955,0,0,0,16.6,9.407c-.435,0-.435,0-.519-.295h0a9.222,9.222,0,0,1-.351-2.61A2.385,2.385,0,0,0,13.7,3.823h-.084a1.864,1.864,0,0,0-.883.126,17.808,17.808,0,0,0-9.452,5.4C.715,12.2.112,15.089,0,18.821H.365C.687,13.293,5.679,8,12.256,6.194A21.321,21.321,0,0,0,12.719,9v.126c.238,1.249.7,3.564,3.772,3.311a24.473,24.473,0,0,1,5.82.365,26.1,26.1,0,0,1,5.96,1.81,24.035,24.035,0,0,1,5.946,3.858,2.2,2.2,0,0,0,1.4.645,1.023,1.023,0,0,0,.7-.267C36.741,18.428,36.783,17.53,35.914,16.506Z" transform="translate(0 1.545)" fill="#fff"/>
          <path id="Path_40727" data-name="Path 40727" d="M3.407,14.689l.126-.126a1.937,1.937,0,0,0,.561-1.782.715.715,0,0,0-.575-.477c-.477-.084-1.052.253-1.585.94-2.8,4.209-2.2,7.576-.126,11.631l.112.224.323-.168c0-.084-.084-.154-.112-.224A9.081,9.081,0,0,1,3.407,14.689Z" transform="translate(0.015 4.962)" fill="#fff"/>
          <path id="Path_40728" data-name="Path 40728" d="M18.342,17.219l.6.112h0a1.738,1.738,0,0,0,.379,0,2.174,2.174,0,0,0,2.1-1.627A2.4,2.4,0,0,0,19.576,12.9,2.384,2.384,0,0,0,16.5,14.5a2.273,2.273,0,0,0,1.837,2.722Z" transform="translate(6.62 5.153)" fill="#fff"/>
          <path id="Path_40729" data-name="Path 40729" d="M26.022,7.335,25.783,7.1h0a1.893,1.893,0,0,0-2.146.561,1.516,1.516,0,0,0,.421,2.062h0v.1l.337.168a1.307,1.307,0,0,0,1.753-.351,1.712,1.712,0,0,0-.126-2.3Z" transform="translate(9.415 2.817)" fill="#fff"/>
          <path id="Path_40730" data-name="Path 40730" d="M28.522,5.217a16.527,16.527,0,0,1,7.362,10.326h.351a13.08,13.08,0,0,0-1.823-5.177,18.436,18.436,0,0,0-2.188-3.157,13.5,13.5,0,0,1-1.192-1.4A29.836,29.836,0,0,0,28.859,3.73,2.173,2.173,0,0,0,27.344,3h0a2.131,2.131,0,0,0-1.486.645l-.182.154a6.144,6.144,0,0,0-1.22,1.4.757.757,0,0,1-.771.2A34.708,34.708,0,0,0,18.5,4,29.2,29.2,0,0,0,15,3.617a2.2,2.2,0,0,0-2.118.786.884.884,0,0,0,0,.912,1.921,1.921,0,0,0,1.753.716,13.4,13.4,0,0,1,3.071.351,37.008,37.008,0,0,1,4.894,1.4l.309.126A3.211,3.211,0,0,0,26.6,6.367a6,6,0,0,1,.813-1.052A.883.883,0,0,1,28.522,5.217Z" transform="translate(5.134 1.217)" fill="#fff"/>
          <path id="Path_40731" data-name="Path 40731" d="M5.645,13.516a1.78,1.78,0,0,0,.715-.154l.323-.126h0a2.4,2.4,0,0,0,1.276-2.974,1.57,1.57,0,0,0-2.23-.687A2.6,2.6,0,0,0,4.467,12.8,1.29,1.29,0,0,0,5.645,13.516Z" transform="translate(1.731 3.777)" fill="#fff"/>
          <path id="Path_40732" data-name="Path 40732" d="M16,24.5a2.719,2.719,0,0,0-1.767.126c-.771.239-1.234.7-1.29,1.263a2.05,2.05,0,0,0,1.248,1.74,2.453,2.453,0,0,0,1.29.393H16.7A1.893,1.893,0,0,0,18.424,26.8a1.642,1.642,0,0,0-.785-1.656A2.8,2.8,0,0,0,16,24.5Z" transform="translate(5.205 9.843)" fill="#fff"/>
          <path id="Path_40733" data-name="Path 40733" d="M28.615,28.577c-.589-1.263-1.4-1.122-1.641-1a2.6,2.6,0,0,0-1.094,3.045v.14a3.565,3.565,0,0,1,.112,1.15,3.3,3.3,0,0,1-1.4,2.343,9.168,9.168,0,0,1-7.012,1.263c-2.342-.365-5.441-1.571-6.591-2.96-.2-.309-.337-.407-.435-.435-.785-.687-2.005-.828-2.384-.407a.681.681,0,0,0,0,.687,7.325,7.325,0,0,1-3.632-6.734c.238-3.507,3.183-6.791,7.348-8.418a18.125,18.125,0,0,1,5.09-1.08h.252c1.613-.168,2.917-1.4,2.8-2.343,0-.295-.238-1.01-1.781-.94h-.491c-7.951.477-14.318,4.476-15.51,9.723-.855,3.83,1.4,7.59,6.2,10.3l.14-.239a14.567,14.567,0,0,0,7.951,3.9,14.115,14.115,0,0,0,8.737-.982C28.5,33.964,29.681,31.467,28.615,28.577Z" transform="translate(0.834 5.202)" fill="#fff"/>
          <path id="Path_40734" data-name="Path 40734" d="M30.457,13.684a17.357,17.357,0,0,0-2.426-4.069,1.4,1.4,0,0,0-.841-.463.813.813,0,0,0-.7.253,1.516,1.516,0,0,0,.2,2.048c3.366,3.662,4.67,7.829,3.674,11.729l.351.112A12.633,12.633,0,0,0,30.457,13.684Z" transform="translate(10.533 3.694)" fill="#fff"/>
          <path id="Path_40735" data-name="Path 40735" d="M28.375,16.363a.953.953,0,0,0-.926.407,1.6,1.6,0,0,0-.1,1.684h0a8.7,8.7,0,0,1-1.094,9.709c-.28.295-.575.6-.9.9l.238.281a8.752,8.752,0,0,0,.954-.954c3.338-3.522,4.207-6.762,2.8-10.9C29.062,16.615,28.627,16.4,28.375,16.363Z" transform="translate(10.203 6.599)" fill="#fff"/>
        </g>
      </g>
    </g>
  </g>
</svg>
