<svg xmlns="http://www.w3.org/2000/svg" width="139.648" height="36" viewBox="0 0 139.648 36">
    <g data-name="4">
        <g data-name="Group 34788">
            <g data-name="Group 34785">
                <path data-name="Path 54660" d="m1.939 15.268.07-.069c.775-.9.07-1.659-.775-.622-1.621 2.281-1.339 4.148 0 6.636a5.131 5.131 0 0 1 .705-5.945z" transform="translate(5.037 1.984)" style="fill:#21d0b2"/>
                <path data-name="Path 54661" d="M20.72 17.128c1.41.207 2.115-1.728.352-2.35-1.9-.415-2.4 1.866-.7 2.281z" transform="translate(-1.123 1.783)" style="fill:#21d0b2"/>
                <path data-name="Path 54662" d="M8.157 17.18a11.251 11.251 0 0 1 3.031-.622h.141c1.41-.138 2.4-1.728.634-1.659h-.282c-8.247.484-12.759 7.189-5.428 11.2-4.369-2.559-2.537-7.26 1.904-8.919z" transform="translate(4.317 1.731)" style="fill:#21d0b2"/>
                <path data-name="Path 54663" d="M27.973 9.522c.775.415 1.48-.622.846-1.313l-.141-.138a1.014 1.014 0 0 0-1.128.277.752.752 0 0 0 .211 1.037.069.069 0 0 1 .07.069z" transform="translate(-3.808 3.859)" style="fill:#21d0b2"/>
                <path data-name="Path 54664" d="M22.543 3.894a3.65 3.65 0 0 0-.7.76.556.556 0 0 1-.564.138 21.69 21.69 0 0 0-3.031-.83 18.549 18.549 0 0 0-2.048-.207c-1.41-.069-1.692 1.175-.211 1.175a8.28 8.28 0 0 1 1.833.207 22.7 22.7 0 0 1 2.89.83l.211.069a1.769 1.769 0 0 0 2.044-.83 3.81 3.81 0 0 1 .493-.622.651.651 0 0 1 .775-.069 9.439 9.439 0 0 1 4.37 5.945 7.239 7.239 0 0 0-1.057-2.9 10.435 10.435 0 0 0-1.269-1.8 7.356 7.356 0 0 1-.7-.83c-.423-.415-.846-.83-1.269-1.175a1.2 1.2 0 0 0-1.762.138z" transform="translate(-.14 5.27)" style="fill:#21d0b2"/>
                <path data-name="Path 54665" d="M14.847 1.313c.7.138 1.48.346 2.185.553 1.057.415 1.48-.553.7-.9L17.455.83a10.046 10.046 0 0 0-2.467-.692A15.621 15.621 0 0 0 12.451 0a13.952 13.952 0 0 0-1.692.138 13.2 13.2 0 0 0-3.525 1.175c-.282.138-.634.346-.987.553a10.128 10.128 0 0 0-1.762 1.245A10.871 10.871 0 0 0 2.3 5.668C4.415 2.143 9.7.484 14.847 1.313z" transform="translate(4.394 6.33)" style="fill:#21d0b2"/>
                <path data-name="Path 54666" d="M7.025 5.506A13.119 13.119 0 0 0 7.3 7.234c.136.691.339 2 2.037 1.866a13.471 13.471 0 0 1 3.327.207 14.825 14.825 0 0 1 3.395 1.037 13.729 13.729 0 0 1 3.395 2.212c.95.83 1.629 0 .815-.968a14.335 14.335 0 0 0-7.536-3.8A13.471 13.471 0 0 0 9.4 7.58c-.339 0-.339-.069-.407-.277a5.143 5.143 0 0 1-.2-1.521A1.243 1.243 0 0 0 7.7 4.4a1.136 1.136 0 0 0-.475.069 10.076 10.076 0 0 0-5.3 3.042A7.49 7.49 0 0 0 .1 12.833c.2-3.387 3.327-6.359 6.925-7.327z" transform="translate(5.043 4.972)" style="fill:#21d0b2"/>
                <path data-name="Path 54667" d="M6.359 12.79c1.269-.622.846-2.489-.493-1.936-1.269.691-.916 2.489.282 2z" transform="translate(3.578 3.01)" style="fill:#21d0b2"/>
                <path data-name="Path 54668" d="M22.1 18.873c-1.41-1.175-2.4-.9-3.243.553l-.07.069a8.6 8.6 0 0 1-1.2 1.59.642.642 0 0 1-.634.138c-.141 0-.211-.069-.352-.138a7.486 7.486 0 0 0-4.229-.622c-2.467.277-1.974 4.631-1.833 6.014a1.639 1.639 0 0 0 .423.76c.493.415 1.128-.76 1.2-1.383.352-1.521 0-4.424 2.256-4.078a7.788 7.788 0 0 1 1.692.484c1.48.691 2.326-.277 2.89-.83a12.75 12.75 0 0 0 1.2-1.521c.141-.277.352-.207.564-.069 3.384 3.042 3.172 7.189-1.692 8.5 6.204-1.518 7.261-5.94 3.028-9.467z" transform="translate(1.215 .73)" style="fill:#1dcdfe"/>
                <path data-name="Path 54669" d="M17.322 29.977c.987-.138 1.269-.9.493-1.452a1.5 1.5 0 0 0-.916-.346 1.577 1.577 0 0 0-.987.069c-.916.277-.916 1.037 0 1.521a1.38 1.38 0 0 0 .7.207z" transform="translate(.19 -2.356)" style="fill:#21d0b2"/>
                <path data-name="Path 54670" d="M19.448 27.455c-.634-1.313-1.762 0-1.41 1.106v.069a2.308 2.308 0 0 1 .07.691c-.141 1.659-2.538 2.558-5 2.143a7.387 7.387 0 0 1-3.947-1.728s-.141-.207-.211-.207c-.634-.553-1.692-.415-1.2.069a8.647 8.647 0 0 0 4.723 2.281 8.5 8.5 0 0 0 5.075-.553c1.971-.968 2.464-2.42 1.9-3.871z" transform="translate(2.49 -1.977)" style="fill:#21d0b2"/>
                <path data-name="Path 54671" d="M30.984 11.692c1.833 1.936 2.82 4.355 2.185 6.774a6.83 6.83 0 0 0-.141-5.392 9.538 9.538 0 0 0-1.41-2.281c-.704-.693-1.268.277-.634.899z" transform="translate(-4.775 3.071)" style="fill:#21d0b2"/>
                <path data-name="Path 54672" d="M30.9 19.929a4.913 4.913 0 0 1-1.2 6.152c2.185-2 3.1-3.871 2.185-6.636-.352-1.106-1.41-.414-.985.484z" transform="translate(-4.478 .503)" style="fill:#21d0b2"/>
            </g>
        </g>
        <g data-name="Group 35636">
            <path data-name="Path 54676" d="M181.915 15.247a3.356 3.356 0 0 0-.968-1.234 3.925 3.925 0 0 0-1.244-.823 9.83 9.83 0 0 0-1.244-.549 13.494 13.494 0 0 1-2.073-.892 2.335 2.335 0 0 1-1.037-.96 2.061 2.061 0 0 1-.346-1.1 1.711 1.711 0 0 1 .553-1.234 2.287 2.287 0 0 1 1.728-.549h.069a3.166 3.166 0 0 1 1.382.343 3.056 3.056 0 0 1 1.037.823 8.933 8.933 0 0 1 .691 1.029l1.59-.892a5.494 5.494 0 0 0-1.037-1.44 4.542 4.542 0 0 0-1.59-1.166 4.6 4.6 0 0 0-2.143-.411 5.243 5.243 0 0 0-2.281.48 4.163 4.163 0 0 0-1.59 1.3 3.675 3.675 0 0 0-.138 3.635 4.209 4.209 0 0 0 1.037 1.166 8.16 8.16 0 0 0 1.313.754c.484.206.9.343 1.244.48.553.206 1.106.411 1.59.617a3.375 3.375 0 0 1 1.244.96 2.325 2.325 0 0 1 .484 1.509 1.979 1.979 0 0 1-.691 1.577 2.848 2.848 0 0 1-1.935.617 4.127 4.127 0 0 1-1.59-.343 4.519 4.519 0 0 1-1.244-1.029 12.135 12.135 0 0 1-1.106-1.509l-1.521.96a10.354 10.354 0 0 0 1.244 1.783 6.931 6.931 0 0 0 1.8 1.372 4.947 4.947 0 0 0 2.212.48h.069a4.437 4.437 0 0 0 1.659-.274 6.519 6.519 0 0 0 1.521-.823 3.968 3.968 0 0 0 1.451-3.018 2.3 2.3 0 0 0-.14-1.639z" transform="translate(-47.988 4.501)" style="fill:#21d0b2"/>
            <path data-name="Path 54678" d="M153.635 19.368V6.2H151.7v15.02h8.018v-1.852z" transform="translate(-41.54 4.495)" style="fill:#21d0b2"/>
            <path data-name="Path 54675" d="M136.409 8.357a3.979 3.979 0 0 0-1.866-1.509 7 7 0 0 0-2.7-.549H127.7v14.883h1.866v-5.966h2.281a6.328 6.328 0 0 0 2.7-.549 5.03 5.03 0 0 0 1.866-1.509 4.135 4.135 0 0 0 .76-2.4 4.473 4.473 0 0 0-.764-2.401zm-2.073 4.458a4.379 4.379 0 0 1-2.419.754h-2.281V8.015h2.281a3.765 3.765 0 0 1 2.419.754 2.563 2.563 0 0 1 .968 2.057 2.527 2.527 0 0 1-.968 1.989z" transform="translate(-32.943 4.546)" style="fill:#21d0b2"/>
            <path data-name="Path 54674" d="M112.609 8.357a3.979 3.979 0 0 0-1.866-1.509 7 7 0 0 0-2.7-.549H103.9v14.883h1.866v-5.966h2.281a6.127 6.127 0 0 0 2.7-.549 5.03 5.03 0 0 0 1.866-1.509 4.082 4.082 0 0 0 .691-2.4 3.88 3.88 0 0 0-.695-2.401zm-2.143 4.458a4.379 4.379 0 0 1-2.419.754h-2.281V8.015h2.281a3.765 3.765 0 0 1 2.419.754 2.4 2.4 0 0 1 .9 2.057 2.276 2.276 0 0 1-.9 1.989z" transform="translate(-24.487 4.696)" style="fill:#21d0b2"/>
            <path data-name="Path 54677" d="M82.366 6.2 75.8 21.151h1.935l4.631-10.7 4.562 10.7h2z" transform="translate(-15.453 4.483)" style="fill:#21d0b2"/>
            <path data-name="Path 54673" d="M46.5 21.182h-1.8L46.5 6.3l5.875 10.287L58.247 6.3l1.728 14.882h-1.8l-1.037-9.6-4.769 8.23-4.769-8.231z" transform="translate(-5.562 4.533)" style="fill:#21d0b2"/>
        </g>
    </g>
</svg>
